<?xml version="1.0" standalone="no"?>
<!DOCTYPE svg PUBLIC "-//W3C//DTD SVG 20010904//EN"
 "http://www.w3.org/TR/2001/REC-SVG-20010904/DTD/svg10.dtd">
<svg version="1.0" xmlns="http://www.w3.org/2000/svg"
 width="1024.000000pt" height="1024.000000pt" viewBox="0 0 1024.000000 1024.000000"
 preserveAspectRatio="xMidYMid meet">

<g transform="translate(0.000000,1024.000000) scale(0.100000,-0.100000)"
fill="#000000" stroke="none">
<path d="M3159 6883 c-123 -131 -241 -257 -261 -281 l-38 -42 0 -780 0 -780
315 0 315 0 0 -23 c0 -87 81 -225 168 -287 102 -73 252 -100 369 -65 72 21
165 87 209 147 39 53 84 162 84 203 l0 25 293 0 294 0 80 64 c76 59 144 96
178 96 12 0 15 -15 15 -75 l0 -75 209 0 208 0 12 -58 c26 -132 111 -241 236
-303 66 -32 75 -34 175 -34 102 0 109 1 182 38 122 60 202 166 230 304 l11 56
181 -6 181 -5 279 278 279 278 -27 79 c-15 43 -42 107 -61 143 -18 36 -56 146
-84 245 l-51 180 -217 325 c-119 179 -226 335 -237 348 l-19 22 -478 0 -478 0
-3 108 -3 107 -1161 3 -1162 2 -223 -237z m3558 -170 c44 -65 141 -209 216
-320 l137 -201 -212 -201 c-140 -133 -219 -201 -233 -201 -16 0 -33 18 -64 68
-117 185 -305 491 -323 525 l-19 38 208 204 c114 112 209 204 210 205 1 0 37
-53 80 -117z m-405 -611 l166 -277 -601 -3 c-331 -1 -608 0 -614 3 -10 3 -13
69 -13 280 l0 275 448 0 447 -1 167 -277z m803 -171 l18 -75 -49 -43 c-27 -23
-52 -43 -56 -43 -4 0 -14 34 -24 76 l-16 76 48 49 c26 27 51 46 55 41 3 -4 14
-40 24 -81z m-237 -233 l20 -103 -71 -72 c-39 -40 -74 -73 -78 -73 -3 0 -12
28 -18 63 -7 34 -17 82 -22 107 l-9 45 73 67 c39 37 75 67 78 68 4 0 15 -46
27 -102z"/>
<path d="M1089 4305 c-102 -33 -200 -127 -235 -225 -25 -72 -29 -175 -10 -250
72 -281 423 -373 631 -165 61 60 91 118 103 200 28 181 -58 350 -216 423 -71
32 -200 40 -273 17z m237 -176 c58 -39 98 -117 97 -194 0 -138 -84 -227 -213
-227 -119 0 -200 73 -216 195 -13 96 38 200 118 241 52 26 163 18 214 -15z"/>
<path d="M4063 4301 c-71 -24 -129 -66 -174 -126 -58 -77 -72 -124 -73 -240
-1 -92 1 -105 30 -165 39 -83 101 -145 184 -184 58 -27 75 -31 155 -31 77 0
98 4 147 27 73 34 143 104 175 175 21 45 27 78 31 155 l5 98 -177 0 -176 0 0
-70 0 -70 95 0 c52 0 95 -2 95 -5 0 -3 -7 -22 -15 -43 -32 -75 -90 -112 -176
-112 -126 0 -213 94 -213 230 0 73 22 126 71 172 38 37 73 48 147 48 64 0 63
1 153 -65 20 -15 24 -14 82 31 l60 46 -22 30 c-29 40 -100 85 -161 103 -67 20
-179 19 -243 -4z"/>
<path d="M6080 4311 c-101 -31 -160 -105 -160 -201 0 -115 51 -165 242 -234
57 -21 100 -68 96 -104 -5 -38 -49 -66 -105 -66 -49 1 -118 29 -143 59 -12 14
-18 11 -62 -32 -26 -26 -48 -53 -48 -60 0 -20 97 -91 143 -105 68 -21 194 -16
243 9 119 62 166 195 109 310 -32 63 -76 94 -187 134 -96 35 -128 58 -128 94
0 55 104 73 166 29 15 -11 33 -23 41 -29 11 -8 26 3 64 44 28 29 48 58 46 65
-5 18 -95 74 -135 86 -42 11 -145 12 -182 1z"/>
<path d="M7493 4306 c-104 -34 -180 -102 -231 -206 -25 -50 -27 -65 -27 -170
0 -112 1 -117 34 -178 63 -116 167 -185 300 -198 195 -21 379 120 410 313 27
176 -61 348 -218 421 -66 31 -202 40 -268 18z m199 -156 c5 0 27 -17 50 -37
55 -50 78 -103 78 -181 0 -150 -114 -247 -257 -221 -136 26 -203 155 -158 306
19 63 87 129 144 139 20 3 40 7 46 8 5 1 28 -1 50 -5 22 -5 43 -8 47 -9z"/>
<path d="M1800 3940 l0 -370 80 0 80 0 0 135 0 135 30 0 c27 0 33 -8 100 -135
l72 -135 90 0 90 0 -25 43 c-133 232 -142 250 -123 261 77 46 106 99 106 196
0 85 -33 158 -87 194 -52 35 -121 46 -279 46 l-134 0 0 -370z m311 191 c40
-41 40 -91 0 -132 -26 -26 -36 -29 -90 -29 l-61 0 0 95 0 95 61 0 c54 0 64 -3
90 -29z"/>
<path d="M2470 4230 l0 -80 90 0 90 0 0 -290 0 -290 80 0 80 0 0 290 0 290 90
0 90 0 0 80 0 80 -260 0 -260 0 0 -80z"/>
<path d="M3190 3940 l0 -370 221 0 221 0 -6 23 c-3 12 -6 43 -6 70 l0 47 -140
0 -140 0 0 80 0 80 125 0 125 0 0 70 0 70 -125 0 -125 0 0 70 0 70 140 0 140
0 0 80 0 80 -215 0 -215 0 0 -370z"/>
<path d="M4831 4014 c-63 -163 -126 -330 -142 -370 l-27 -75 81 3 81 3 29 78
30 77 136 0 136 0 29 -80 28 -80 83 0 83 0 -83 218 c-45 119 -109 286 -141
369 l-59 153 -75 0 -75 0 -114 -296z m235 -26 c21 -62 41 -116 42 -120 2 -4
-35 -8 -82 -8 -66 0 -86 3 -86 14 0 7 16 56 35 107 19 52 35 100 35 107 0 37
21 -1 56 -100z"/>
<path d="M6570 4230 l0 -80 90 0 90 0 0 -290 0 -290 80 0 81 0 -3 290 -3 290
93 0 92 0 0 80 0 80 -260 0 -260 0 0 -80z"/>
<path d="M8210 3941 l0 -371 80 0 80 0 0 135 0 135 28 0 c25 0 33 -12 97 -135
l70 -135 92 0 91 0 -84 146 -84 147 28 14 c66 35 101 97 102 182 0 73 -17 124
-57 170 -50 59 -99 73 -285 78 l-158 5 0 -371z m316 185 c15 -17 24 -40 24
-61 0 -21 -9 -44 -24 -61 -20 -24 -32 -28 -90 -32 l-66 -4 0 97 0 97 66 -4
c58 -4 70 -8 90 -32z"/>
<path d="M8940 3940 l0 -370 225 0 225 0 0 70 0 70 -145 0 -145 0 0 80 0 80
125 0 125 0 0 70 0 70 -125 0 -125 0 0 70 0 70 145 0 146 0 -4 78 -4 77 -221
3 -222 2 0 -370z"/>
</g>
</svg>
