<?xml version="1.0" standalone="no"?>
<!DOCTYPE svg PUBLIC "-//W3C//DTD SVG 20010904//EN"
 "http://www.w3.org/TR/2001/REC-SVG-20010904/DTD/svg10.dtd">
<svg version="1.0" xmlns="http://www.w3.org/2000/svg"
 width="1024.000000pt" height="1024.000000pt" viewBox="0 0 1024.000000 1024.000000"
 preserveAspectRatio="xMidYMid meet">

<g transform="translate(0.000000,1024.000000) scale(0.100000,-0.100000)"
fill="#000000" stroke="none">
<path d="M0 5120 l0 -5120 5120 0 5120 0 0 5120 0 5120 -5120 0 -5120 0 0
-5120z m5353 3665 c335 -59 675 -238 898 -473 160 -168 321 -427 374 -599 l6
-23 -214 0 -214 0 -25 64 c-60 152 -194 332 -331 446 -107 89 -300 183 -447
217 -100 23 -136 26 -280 26 -144 -1 -177 -4 -263 -26 -104 -28 -264 -99 -361
-161 -79 -50 -236 -204 -308 -300 -102 -136 -179 -321 -214 -511 -28 -150 -25
-454 4 -590 32 -145 66 -245 128 -374 67 -141 119 -213 225 -317 187 -182 382
-267 684 -300 163 -18 250 -13 385 21 200 50 353 132 492 264 111 105 176 191
232 306 68 139 126 339 126 431 l0 24 -175 0 -174 0 -11 -42 c-48 -186 -118
-308 -242 -423 -146 -136 -326 -205 -529 -205 -373 0 -657 236 -759 632 -28
108 -38 323 -20 449 52 385 275 660 600 741 125 31 300 23 423 -20 230 -79
391 -246 473 -492 19 -55 37 -124 40 -155 l7 -55 -177 0 -176 0 0 28 c0 48
-29 144 -70 230 -47 98 -112 167 -197 209 -50 24 -70 28 -143 28 -76 0 -93 -3
-152 -33 -198 -97 -299 -376 -277 -762 8 -134 27 -218 74 -316 85 -178 237
-265 411 -235 181 32 316 175 368 394 l6 27 -134 0 -135 0 -3 131 c-2 72 -1
133 1 135 2 2 319 4 704 4 l700 0 -6 -117 c-11 -209 -61 -447 -130 -625 -117
-296 -420 -625 -717 -777 -197 -101 -365 -140 -630 -148 -153 -4 -212 -1 -340
16 -169 23 -250 46 -395 115 -420 199 -753 601 -869 1049 -76 293 -84 543 -25
837 24 123 79 285 123 364 228 408 514 662 911 811 94 35 252 79 320 88 81 11
346 6 428 -8z m-3458 -4130 c229 -59 401 -226 475 -460 32 -99 39 -302 15
-411 -61 -284 -280 -493 -573 -550 -371 -71 -713 137 -810 492 -42 153 -37
333 14 486 78 236 300 415 569 459 69 11 238 2 310 -16z m5533 -1 c88 -18 199
-52 205 -62 3 -4 8 -87 12 -185 l7 -178 -33 3 c-30 3 -39 12 -86 88 -69 114
-134 185 -196 218 -46 24 -63 27 -147 27 -138 0 -210 -27 -300 -111 -134 -126
-175 -254 -168 -517 4 -144 8 -171 32 -242 72 -211 224 -342 406 -353 90 -5
177 11 221 41 l32 22 -2 146 c-1 80 -6 163 -11 185 -11 48 -55 87 -122 110
-43 14 -48 19 -48 45 l0 29 260 2 c143 1 275 2 293 2 28 1 32 -3 35 -27 2 -16
-2 -29 -10 -31 -7 -2 -31 -9 -53 -15 -83 -22 -79 -9 -85 -288 l-5 -248 -62
-22 c-113 -40 -277 -67 -408 -66 -472 1 -762 250 -782 673 -7 150 12 252 71
375 110 230 302 365 562 395 101 11 288 3 382 -16z m-4056 -32 c144 -39 211
-87 264 -192 59 -118 38 -297 -46 -392 -43 -50 -97 -85 -172 -113 -27 -10 -48
-19 -48 -21 0 -2 22 -34 48 -71 27 -38 103 -147 170 -245 124 -180 159 -218
218 -243 28 -12 34 -19 34 -44 l0 -31 -190 0 -190 0 -44 68 c-23 37 -107 167
-185 290 l-143 222 -54 0 -54 0 0 -218 0 -219 25 -23 c13 -12 48 -31 77 -41
47 -16 53 -21 56 -48 l3 -31 -305 0 -306 0 0 33 c0 32 1 33 70 51 47 12 74 24
81 37 16 31 22 369 14 763 l-7 359 -24 22 c-13 12 -49 30 -79 40 -51 16 -55
19 -55 47 l0 30 383 -5 c345 -4 389 -6 459 -25z m1632 6 c5 -25 36 -315 36
-336 0 -9 -12 -12 -37 -10 -35 3 -37 5 -58 68 -31 92 -61 147 -91 166 -18 13
-56 18 -145 22 l-120 5 3 -564 c2 -310 7 -572 12 -581 8 -18 67 -43 131 -56
36 -7 40 -11 43 -40 l3 -32 -325 0 -326 0 0 33 c0 33 0 33 75 51 52 12 80 24
90 39 13 18 15 101 15 584 l0 563 -110 0 c-169 0 -200 -21 -255 -167 -33 -87
-34 -88 -70 -91 -37 -3 -37 -3 -32 30 4 18 14 98 23 178 9 80 18 148 21 153 2
4 254 7 558 7 l555 0 4 -22z m1200 -65 c3 -49 8 -118 11 -155 l5 -68 -34 0
c-33 0 -38 5 -76 68 -72 122 -94 132 -292 132 -144 0 -188 -10 -202 -45 -3 -9
-6 -118 -6 -241 l0 -224 135 0 c176 0 194 7 223 88 12 33 29 65 37 72 15 12
62 10 58 -2 -2 -5 -3 -103 -3 -219 l0 -210 -32 3 c-30 3 -35 9 -58 65 -14 34
-31 68 -38 75 -9 9 -59 14 -168 16 l-155 4 3 -246 c4 -311 -10 -290 188 -294
153 -4 235 8 275 40 14 11 53 74 86 139 59 118 59 119 94 119 24 0 35 -5 35
-15 0 -8 -13 -96 -30 -197 -16 -100 -30 -185 -30 -190 0 -4 -236 -8 -525 -8
l-525 0 0 33 c0 31 3 33 60 50 97 28 91 -16 88 610 -3 617 3 570 -87 603 -25
10 -51 21 -57 26 -8 6 -11 37 -5 56 1 1 230 2 510 2 l509 0 6 -87z m2503 -3
c19 -47 79 -209 134 -360 155 -421 247 -657 291 -742 36 -69 45 -80 89 -100
43 -21 48 -27 49 -55 l0 -33 -298 0 c-164 0 -301 2 -304 5 -2 3 -3 18 0 33 3
26 9 30 68 41 36 8 74 21 86 31 l21 17 -27 89 c-16 49 -42 126 -58 172 l-30
82 -242 -2 -241 -3 -42 -122 c-23 -67 -45 -142 -48 -167 -6 -39 -4 -48 18 -70
17 -17 41 -27 75 -32 42 -5 51 -10 57 -31 3 -13 3 -28 0 -33 -4 -6 -101 -10
-236 -10 l-229 0 0 30 c0 27 6 33 43 49 64 28 89 65 153 228 31 82 72 186 91
232 19 46 67 174 108 285 82 226 163 437 194 509 l21 48 112 -3 112 -3 33 -85z
m-6909 -1851 c52 -22 62 -43 34 -72 l-22 -21 -41 24 c-77 43 -150 27 -203 -44
-29 -39 -29 -133 0 -172 54 -72 135 -90 208 -45 l37 23 25 -23 25 -24 -26 -22
c-36 -32 -128 -57 -177 -49 -138 22 -224 153 -188 286 37 140 183 202 328 139z
m451 20 c64 -13 125 -58 152 -110 71 -139 -3 -296 -155 -330 -44 -9 -62 -9
-109 5 -71 21 -109 53 -143 122 -23 46 -26 63 -21 110 10 101 72 175 166 200
58 16 52 16 110 3z m1137 -19 c53 -23 58 -32 33 -64 -19 -24 -22 -25 -42 -11
-65 46 -167 34 -167 -19 0 -31 23 -46 115 -76 95 -32 125 -62 125 -130 0 -43
-5 -56 -28 -80 -59 -59 -179 -61 -265 -4 l-38 25 21 29 21 29 35 -24 c71 -48
160 -44 179 9 8 24 6 31 -14 47 -12 10 -54 28 -92 39 -117 35 -159 93 -126
173 34 80 134 104 243 57z m2950 0 c54 -23 61 -36 33 -66 -21 -23 -24 -23 -47
-8 -84 55 -191 25 -228 -63 -33 -77 -1 -172 68 -203 53 -24 76 -25 128 -4 38
15 40 18 40 60 l0 44 -50 0 c-49 0 -50 1 -50 30 l0 30 90 0 90 0 0 -90 0 -89
-43 -26 c-162 -94 -343 -17 -364 155 -22 186 155 308 333 230z m554 0 c76 -39
120 -113 120 -202 -1 -69 -27 -125 -80 -170 -146 -126 -370 -21 -370 172 0
170 177 277 330 200z m580 3 c68 -28 115 -94 127 -178 15 -110 -62 -221 -170
-245 -131 -30 -249 45 -277 177 -39 182 140 321 320 246z m1020 16 c24 -5 59
-19 77 -30 l33 -21 -20 -28 -21 -29 -35 21 c-41 24 -114 29 -138 8 -21 -17
-20 -53 2 -72 9 -9 42 -23 72 -33 121 -38 150 -66 150 -141 0 -53 -57 -108
-123 -118 -58 -9 -144 14 -184 48 l-28 24 23 25 24 25 34 -23 c87 -59 213 -27
175 44 -7 12 -40 29 -92 46 -102 33 -125 48 -139 91 -24 71 17 144 88 160 15
3 32 7 37 9 16 5 17 5 65 -6z m-5725 -144 c61 -79 113 -144 118 -145 4 0 7 66
7 146 l0 145 37 -3 36 -3 -1 -215 -2 -215 -30 -1 c-27 -1 -40 12 -141 145 -61
80 -115 148 -120 149 -5 2 -9 -59 -9 -145 l0 -148 -35 -1 -35 -1 0 219 0 218
33 0 c30 0 40 -11 142 -145z m925 -2 c0 -128 3 -152 19 -179 37 -60 142 -67
174 -11 7 14 14 81 17 177 l5 155 38 3 37 3 0 -148 c0 -168 -8 -210 -50 -251
-55 -55 -174 -64 -242 -18 -63 42 -73 73 -76 254 l-4 162 41 0 41 0 0 -147z
m619 47 c35 -55 67 -100 70 -100 3 0 35 45 70 100 62 99 63 100 102 100 l39 0
-2 -217 -3 -218 -34 0 -34 0 2 148 c1 81 -2 147 -7 147 -4 0 -35 -40 -68 -90
-32 -49 -62 -90 -67 -90 -4 0 -34 40 -65 90 -31 49 -60 90 -64 90 -5 0 -8 -64
-8 -143 0 -79 -2 -146 -5 -149 -3 -2 -18 -3 -35 0 l-30 4 0 214 0 214 38 0
c36 0 39 -2 101 -100z m789 63 l3 -32 -123 -3 -123 -3 0 -54 0 -54 105 -2 105
-1 0 -30 0 -29 -107 -3 -108 -3 0 -59 0 -60 126 0 125 0 -3 -32 -3 -31 -158
-1 -157 -1 0 218 0 218 158 -3 157 -3 3 -32z m424 27 c71 -20 112 -102 88
-174 -10 -33 -53 -79 -81 -88 -7 -2 8 -32 39 -75 29 -39 52 -76 52 -82 0 -7
-15 -11 -40 -9 -38 2 -43 6 -91 75 l-50 73 -49 0 -49 0 -3 -72 -3 -72 -35 -1
-35 0 -3 205 c-1 112 0 210 2 217 7 16 203 18 258 3z m2515 -18 c160 -83 146
-336 -21 -392 -19 -6 -83 -12 -143 -13 l-108 -2 -3 205 c-1 112 0 211 3 218 9
24 218 11 272 -16z m-1430 -768 c61 -22 71 -39 43 -69 l-22 -24 -39 21 c-31
16 -52 19 -94 16 -65 -5 -96 -30 -121 -94 -51 -135 80 -260 206 -196 31 15 35
21 32 52 -2 19 -6 37 -8 39 -2 2 -23 4 -46 5 -41 1 -43 3 -46 34 l-3 32 90 0
91 0 0 -88 c0 -99 -5 -108 -75 -138 -52 -23 -169 -24 -210 -2 -96 52 -142 164
-111 272 39 134 168 191 313 140z m-2857 -19 l0 -34 -72 -3 -73 -3 -2 -180 -2
-180 -35 -3 -36 -3 0 185 0 186 -70 0 -70 0 0 35 0 35 180 0 180 0 0 -35z
m416 16 c68 -31 97 -95 74 -165 -11 -33 -53 -79 -82 -88 -7 -3 7 -31 40 -78
28 -40 49 -77 46 -81 -3 -5 -21 -9 -39 -9 -32 0 -39 6 -85 75 l-51 75 -49 0
-49 0 -3 -72 -3 -73 -35 0 -35 0 -3 218 -2 217 117 0 c94 0 127 -4 159 -19z
m542 -191 c51 -116 92 -215 92 -220 0 -6 -16 -10 -35 -10 -33 0 -37 3 -60 55
l-24 55 -101 0 -101 0 -25 -55 c-24 -51 -28 -55 -60 -55 -19 0 -34 3 -34 8 0
4 41 103 92 219 l93 213 36 0 36 0 91 -210z m517 175 c69 -42 108 -118 103
-195 -11 -148 -101 -210 -303 -210 l-85 0 0 221 0 221 118 -3 c111 -4 122 -6
167 -34z m333 -182 l-3 -218 -35 0 -35 0 -3 205 c-1 112 0 210 2 217 3 7 21
13 41 13 l35 0 -2 -217z m362 75 c58 -75 108 -137 113 -137 4 -1 7 62 7 139
l0 140 40 0 40 0 -2 -217 -3 -218 -27 -3 c-23 -3 -38 12 -126 125 -54 70 -105
138 -113 151 -8 12 -17 22 -21 22 -4 0 -9 -66 -10 -147 l-3 -148 -35 0 -35 0
-3 205 c-1 112 0 210 3 218 3 8 17 12 37 10 28 -3 45 -19 138 -140z"/>
<path d="M1540 4548 c-68 -26 -148 -105 -185 -183 -88 -187 -99 -496 -24 -723
39 -119 131 -229 235 -282 41 -21 63 -25 134 -25 94 0 162 24 229 81 177 149
223 601 92 888 -55 120 -150 219 -240 251 -63 22 -174 19 -241 -7z"/>
<path d="M2980 4261 c0 -154 1 -284 3 -288 1 -5 45 -8 97 -7 152 1 224 36 276
134 24 44 27 213 5 274 -36 102 -130 156 -283 164 l-98 5 0 -282z"/>
<path d="M8471 4349 c-55 -141 -90 -236 -131 -356 l-49 -143 194 0 c120 0 195
4 195 10 0 19 -181 495 -193 506 -4 4 -11 -4 -16 -17z"/>
<path d="M2154 2659 c-41 -12 -91 -69 -100 -114 -15 -82 32 -164 107 -186 106
-32 206 70 185 186 -9 47 -59 102 -104 115 -42 11 -46 11 -88 -1z"/>
<path d="M6749 2661 c-70 -22 -109 -76 -109 -151 0 -81 49 -141 126 -156 45
-8 118 26 144 68 26 43 27 121 1 168 -29 56 -104 88 -162 71z"/>
<path d="M7323 2659 c-68 -20 -113 -114 -92 -191 35 -130 198 -156 266 -41 72
123 -40 272 -174 232z"/>
<path d="M5340 2585 l0 -75 65 0 c76 0 122 19 131 54 15 62 -32 96 -136 96
l-60 0 0 -75z"/>
<path d="M7840 2510 l0 -150 57 0 c118 0 180 59 171 164 -8 92 -65 136 -180
136 l-48 0 0 -150z"/>
<path d="M3970 1805 l0 -77 81 4 c70 3 83 6 100 27 10 13 19 33 19 46 0 13 -9
33 -19 46 -17 21 -30 24 -100 27 l-81 4 0 -77z"/>
<path d="M4545 1776 c-19 -42 -35 -81 -35 -87 0 -5 32 -9 70 -9 39 0 70 4 70
9 0 9 -59 153 -66 160 -2 2 -20 -31 -39 -73z"/>
<path d="M5020 1740 c0 -77 1 -143 3 -147 1 -5 29 -8 63 -7 74 1 121 25 146
74 56 109 -25 220 -159 220 l-53 0 0 -140z"/>
</g>
</svg>
