<?xml version="1.0" standalone="no"?>
<!DOCTYPE svg PUBLIC "-//W3C//DTD SVG 20010904//EN"
 "http://www.w3.org/TR/2001/REC-SVG-20010904/DTD/svg10.dtd">
<svg version="1.0" xmlns="http://www.w3.org/2000/svg"
 width="1024.000000pt" height="1024.000000pt" viewBox="0 0 1024.000000 1024.000000"
 preserveAspectRatio="xMidYMid meet">

<g transform="translate(0.000000,1024.000000) scale(0.100000,-0.100000)"
fill="#000000" stroke="none">
<path d="M4960 8794 c-265 -31 -500 -116 -703 -252 -392 -263 -639 -668 -698
-1145 -17 -145 -7 -454 21 -582 77 -362 257 -678 516 -906 214 -189 433 -298
708 -354 435 -88 866 1 1226 253 88 62 282 259 353 359 186 262 297 617 297
949 l0 64 -705 0 -705 0 0 -130 0 -130 139 0 140 0 -15 -52 c-30 -106 -90
-212 -154 -271 -77 -72 -148 -100 -250 -101 -105 0 -179 34 -260 120 -128 137
-192 366 -175 623 25 382 208 612 468 588 174 -16 311 -164 368 -397 l21 -85
180 3 c163 3 179 4 174 20 -3 9 -12 46 -21 82 -45 176 -164 359 -310 476 -226
180 -570 202 -823 52 -77 -45 -204 -168 -257 -248 -206 -310 -220 -760 -34
-1086 208 -364 651 -495 1021 -302 185 96 351 315 400 527 l11 51 189 0 188 0
-4 -22 c-30 -146 -43 -195 -68 -268 -165 -470 -578 -768 -1068 -770 -480 -2
-888 281 -1065 739 -141 365 -136 814 14 1161 161 374 490 635 869 690 131 19
355 8 477 -24 319 -82 585 -311 730 -628 l40 -88 208 0 c169 0 207 3 207 14 0
7 -16 53 -36 102 -167 418 -505 739 -932 888 -158 55 -291 77 -482 81 -91 2
-181 1 -200 -1z"/>
<path d="M1472 4650 c-332 -89 -544 -420 -503 -782 21 -186 83 -325 198 -441
112 -113 231 -167 414 -188 297 -34 569 92 708 330 50 84 76 164 91 282 47
363 -132 675 -451 784 -75 26 -100 29 -234 32 -125 2 -162 0 -223 -17z m343
-122 c142 -73 242 -273 263 -524 26 -307 -58 -546 -222 -632 -45 -23 -62 -26
-151 -27 -89 0 -106 3 -156 28 -108 52 -188 173 -237 356 -23 85 -26 116 -26
271 0 139 3 188 17 238 29 102 62 168 114 223 78 83 121 99 253 96 79 -3 103
-8 145 -29z"/>
<path d="M6990 4655 c-159 -34 -277 -101 -386 -218 -131 -141 -187 -292 -186
-502 1 -188 49 -334 153 -460 123 -150 273 -220 514 -240 147 -12 393 29 529
89 l55 24 3 222 3 222 28 24 c18 15 41 24 63 24 32 0 34 2 34 35 l0 35 -280 0
-280 0 0 -29 c0 -27 4 -29 47 -36 61 -9 99 -46 108 -106 3 -24 5 -113 3 -198
l-3 -154 -40 -14 c-101 -36 -254 -24 -354 26 -188 97 -303 383 -272 680 25
240 96 378 229 443 65 32 69 33 197 33 112 -1 138 -4 190 -24 88 -36 157 -108
184 -196 12 -37 21 -73 21 -81 0 -10 12 -14 40 -14 l40 0 0 174 0 175 -55 20
c-30 11 -99 30 -154 41 -118 24 -329 26 -431 5z"/>
<path d="M2510 4621 c0 -25 5 -30 33 -36 58 -13 104 -43 121 -79 14 -30 16
-93 16 -550 0 -559 -1 -566 -54 -601 -14 -9 -43 -19 -66 -22 -38 -5 -40 -8
-40 -39 l0 -34 300 0 300 0 0 34 c0 31 -2 34 -41 40 -51 8 -93 48 -108 102 -6
22 -11 124 -11 232 l0 192 63 0 64 0 36 -62 c20 -35 99 -169 175 -298 l138
-235 184 -3 c101 -1 189 -1 196 2 6 2 9 17 6 34 -3 25 -12 33 -47 46 -68 27
-115 84 -232 289 -61 106 -120 208 -132 229 l-22 36 63 34 c144 76 220 192
221 338 2 147 -62 249 -196 315 -122 60 -166 65 -589 65 l-378 0 0 -29z m694
-104 c63 -28 104 -64 130 -115 30 -61 37 -92 37 -168 0 -88 -19 -142 -66 -190
-54 -53 -116 -74 -242 -81 l-103 -6 0 290 c0 159 2 292 4 294 11 11 205 -9
240 -24z"/>
<path d="M3880 4646 c0 -2 -11 -81 -25 -176 -14 -95 -25 -178 -25 -186 0 -10
13 -14 45 -14 44 0 44 1 56 42 26 99 76 170 143 205 19 10 68 19 129 22 l97 6
0 -558 c0 -613 1 -600 -60 -632 -16 -8 -50 -18 -75 -22 -43 -5 -45 -7 -45 -39
l0 -34 320 0 320 0 0 35 c0 33 -2 35 -32 35 -43 0 -96 28 -122 63 -21 28 -21
38 -21 589 l0 561 85 -2 c55 -2 99 -9 125 -20 68 -30 129 -116 150 -209 6 -30
9 -32 51 -32 29 0 44 4 44 13 0 6 -9 84 -20 171 -11 88 -20 166 -20 173 0 11
-105 13 -560 13 -308 0 -560 -2 -560 -4z"/>
<path d="M5160 4622 c0 -25 5 -28 52 -40 34 -8 64 -23 83 -42 l30 -30 3 -528
c2 -346 -1 -539 -7 -563 -14 -47 -40 -69 -98 -84 -43 -11 -48 -15 -48 -41 l0
-29 531 -3 531 -2 27 167 c14 93 26 175 26 184 0 21 -71 44 -82 26 -4 -7 -8
-18 -8 -25 0 -23 -60 -136 -87 -164 -14 -15 -48 -37 -77 -50 -47 -21 -65 -23
-218 -23 -147 0 -169 2 -185 18 -16 16 -18 43 -21 272 l-3 255 113 0 c62 0
131 -5 152 -11 51 -14 93 -59 101 -109 5 -30 12 -40 25 -40 10 0 25 -3 34 -6
13 -5 16 19 18 200 l3 206 -42 0 c-31 0 -43 -4 -43 -15 0 -8 -14 -30 -31 -50
-41 -47 -106 -65 -231 -65 l-98 0 0 258 0 257 152 -3 c84 -1 173 -7 198 -13
98 -23 155 -77 175 -166 6 -30 10 -33 46 -33 l39 0 0 160 0 160 -530 0 -530 0
0 -28z"/>
<path d="M8449 4623 c-20 -55 -371 -970 -416 -1086 -52 -137 -94 -191 -156
-202 -35 -7 -38 -10 -35 -39 l3 -31 229 -3 c206 -2 228 -1 222 14 -3 8 -6 24
-6 34 0 14 -11 22 -40 30 -22 6 -52 21 -67 34 -39 33 -35 75 20 221 l45 120
247 0 247 0 49 -120 c56 -139 62 -193 26 -229 -13 -13 -41 -26 -63 -30 -43 -9
-54 -19 -54 -53 l0 -23 300 0 300 0 0 35 c0 29 -4 35 -20 35 -40 0 -89 29
-114 67 -15 22 -127 311 -250 644 l-224 604 -116 3 -116 3 -11 -28z m150 -526
c50 -137 91 -251 91 -253 0 -2 -89 -4 -199 -4 l-198 0 74 198 c40 108 85 228
100 266 17 46 28 64 33 55 5 -8 49 -126 99 -262z"/>
<path d="M1622 2725 c-99 -31 -152 -106 -152 -214 0 -131 91 -221 222 -221 52
0 147 35 162 59 4 6 -3 24 -15 40 l-22 30 -29 -24 c-95 -80 -238 -10 -238 117
0 45 34 110 69 131 43 25 119 22 161 -6 l34 -24 25 30 25 29 -25 19 c-28 22
-112 49 -148 48 -14 0 -45 -6 -69 -14z"/>
<path d="M2134 2726 c-95 -31 -154 -114 -154 -215 1 -132 92 -221 227 -221 94
1 184 57 213 135 27 72 7 190 -43 243 -53 57 -165 84 -243 58z m154 -86 c39
-24 62 -73 62 -130 0 -103 -92 -171 -190 -141 -106 31 -133 170 -50 253 34 35
42 38 91 38 37 0 65 -7 87 -20z"/>
<path d="M3241 2730 c-18 -4 -48 -22 -65 -39 -27 -28 -31 -38 -31 -87 0 -49 4
-59 28 -80 15 -13 53 -31 85 -39 95 -26 122 -42 122 -69 0 -57 -84 -73 -166
-31 l-49 25 -22 -28 -22 -27 22 -17 c34 -26 105 -48 159 -48 99 0 158 48 158
129 -1 72 -33 101 -155 136 -33 9 -66 22 -72 27 -18 15 -16 53 4 69 23 20 95
15 136 -8 l35 -21 22 30 c12 16 20 31 18 33 -1 1 -21 12 -43 23 -49 24 -118
34 -164 22z"/>
<path d="M6175 2731 c-170 -44 -232 -254 -111 -375 72 -72 202 -87 298 -34
l43 23 3 98 3 97 -96 0 -95 0 0 -35 0 -35 55 0 55 0 0 -44 c0 -40 -3 -45 -31
-55 -74 -26 -155 -4 -189 51 -31 48 -25 156 10 194 41 44 84 57 141 44 26 -7
53 -18 60 -26 10 -13 16 -11 41 12 15 15 28 31 28 35 0 4 -19 16 -42 28 -49
23 -129 33 -173 22z"/>
<path d="M6712 2726 c-61 -20 -107 -58 -132 -111 -33 -67 -26 -176 14 -233 74
-107 254 -124 349 -34 52 49 69 96 65 178 -3 61 -8 79 -33 115 -54 77 -171
115 -263 85z m161 -96 c45 -39 61 -79 54 -136 -6 -55 -31 -93 -78 -116 -128
-66 -256 74 -192 209 23 49 66 73 130 73 44 0 58 -5 86 -30z"/>
<path d="M7303 2726 c-102 -33 -156 -107 -157 -216 0 -59 4 -75 30 -116 40
-65 113 -104 195 -104 70 0 112 15 162 59 75 67 91 208 31 293 -53 76 -170
114 -261 84z m167 -104 c100 -100 38 -262 -100 -262 -38 0 -77 19 -109 54 -19
20 -26 40 -29 85 -7 104 45 161 147 161 49 0 57 -3 91 -38z"/>
<path d="M8395 2730 c-17 -5 -44 -23 -60 -40 -26 -27 -30 -39 -30 -87 0 -48 4
-58 28 -79 15 -13 53 -31 85 -39 95 -26 122 -42 122 -69 0 -57 -84 -73 -164
-32 l-48 24 -24 -26 -23 -27 22 -17 c34 -26 105 -48 159 -48 94 0 158 49 158
121 0 79 -32 108 -155 144 -71 20 -85 30 -85 60 0 51 73 65 147 29 l42 -21 21
29 c12 16 20 31 18 33 -1 1 -21 12 -44 23 -49 25 -127 35 -169 22z"/>
<path d="M2580 2510 l0 -220 40 0 40 0 0 157 0 156 43 -55 c175 -230 201 -258
234 -258 l33 0 0 220 0 220 -40 0 -39 0 -3 -145 -3 -145 -115 145 c-111 141
-115 145 -152 145 l-38 0 0 -220z"/>
<path d="M3622 2563 c3 -157 5 -170 26 -201 33 -46 90 -72 157 -72 69 0 113
18 148 59 38 46 47 90 47 244 l0 137 -42 0 -43 0 3 -112 c6 -197 -13 -245 -99
-255 -41 -5 -50 -2 -80 25 l-34 30 -3 156 -3 156 -41 0 -40 0 4 -167z"/>
<path d="M4160 2510 l0 -220 40 0 40 0 0 158 0 157 68 -102 c37 -57 69 -103
72 -103 3 0 34 43 70 96 l65 96 3 -151 3 -151 39 0 40 0 0 220 0 220 -42 0
-43 0 -65 -100 c-35 -55 -67 -100 -70 -100 -3 0 -33 45 -68 100 l-64 100 -44
0 -44 0 0 -220z"/>
<path d="M4772 2513 l3 -218 168 -3 168 -2 -3 36 -3 36 -122 -1 -123 -2 0 55
0 56 105 0 105 0 0 40 0 40 -105 0 -105 0 0 55 0 55 120 0 120 0 0 35 0 35
-165 0 -165 0 2 -217z"/>
<path d="M5260 2510 l0 -220 40 0 40 0 0 80 0 80 43 0 c42 0 44 -1 98 -77 54
-77 55 -78 102 -81 26 -2 47 0 47 3 0 3 -25 40 -57 83 -51 68 -54 77 -38 87
71 42 97 97 77 163 -23 78 -79 101 -239 102 l-113 0 0 -220z m256 125 c19 -26
18 -79 -3 -96 -9 -8 -50 -16 -95 -19 l-78 -5 0 74 0 73 81 -4 c66 -3 83 -7 95
-23z"/>
<path d="M7750 2510 l0 -220 90 0 c117 0 182 15 232 53 113 87 113 258 0 338
-53 38 -103 49 -219 49 l-103 0 0 -220z m240 132 c73 -36 101 -126 62 -202
-24 -48 -65 -69 -144 -72 -37 -2 -67 0 -68 5 0 4 0 70 0 147 l0 140 58 0 c34
0 71 -7 92 -18z"/>
<path d="M6434 1956 c-99 -31 -154 -107 -154 -215 0 -74 23 -126 76 -169 71
-59 179 -66 273 -20 l46 23 3 98 3 97 -91 0 -90 0 0 -35 0 -35 53 0 52 0 -3
-45 c-4 -40 -7 -45 -39 -56 -74 -24 -152 6 -185 72 -68 133 57 272 187 209
l47 -23 26 27 c26 25 26 26 7 41 -25 19 -111 45 -144 44 -14 0 -45 -6 -67 -13z"/>
<path d="M3390 1925 l0 -35 65 0 65 0 0 -180 0 -180 45 0 45 0 0 180 0 180 65
0 65 0 0 35 0 35 -175 0 -175 0 0 -35z"/>
<path d="M3880 1746 l0 -216 40 0 40 0 0 75 0 75 43 0 c41 0 43 -2 91 -71 26
-39 54 -73 61 -75 7 -3 29 -4 50 -2 l37 3 -55 76 -54 76 31 17 c44 23 69 70
68 123 -1 98 -49 126 -224 131 l-128 4 0 -216z m233 133 c29 -16 37 -28 37
-61 0 -50 -30 -68 -115 -68 l-75 0 0 70 0 70 66 0 c36 0 75 -5 87 -11z"/>
<path d="M4452 1751 c-51 -115 -92 -212 -92 -215 0 -3 17 -6 38 -6 36 0 40 3
62 50 l23 50 102 0 101 0 19 -50 c19 -49 20 -50 62 -50 24 0 43 1 43 3 0 2
-42 97 -93 212 l-94 210 -39 3 -40 3 -92 -210z m162 42 c16 -38 30 -74 33 -80
4 -10 -13 -13 -67 -13 -39 0 -70 3 -68 8 2 4 17 40 33 79 17 40 33 73 36 73 3
0 18 -30 33 -67z"/>
<path d="M4931 1746 l0 -216 108 0 c133 0 186 16 236 71 45 50 55 76 55 145 0
86 -39 148 -120 190 -27 14 -64 19 -157 22 l-122 4 0 -216z m239 125 c99 -53
105 -185 11 -248 -26 -18 -48 -23 -97 -23 l-64 0 0 145 0 145 58 0 c37 0 70
-7 92 -19z"/>
<path d="M5480 1745 l0 -215 40 0 40 0 0 215 0 215 -40 0 -40 0 0 -215z"/>
<path d="M5740 1745 l0 -215 40 0 40 0 0 151 0 151 118 -151 c113 -145 118
-150 155 -150 l37 -1 0 215 0 215 -40 0 -39 0 -3 -146 -3 -145 -115 145 c-111
142 -116 146 -152 146 l-38 0 0 -215z"/>
</g>
</svg>
