<?xml version="1.0" standalone="no"?>
<!DOCTYPE svg PUBLIC "-//W3C//DTD SVG 20010904//EN"
 "http://www.w3.org/TR/2001/REC-SVG-20010904/DTD/svg10.dtd">
<svg version="1.0" xmlns="http://www.w3.org/2000/svg"
 width="1024.000000pt" height="1024.000000pt" viewBox="0 0 1024.000000 1024.000000"
 preserveAspectRatio="xMidYMid meet">

<g transform="translate(0.000000,1024.000000) scale(0.100000,-0.100000)"
fill="#000000" stroke="none">
<path d="M0 5120 l0 -5120 5120 0 5120 0 0 5120 0 5120 -5120 0 -5120 0 0
-5120z m5465 2276 c210 -38 349 -83 534 -172 338 -162 613 -403 830 -728 55
-81 164 -298 200 -398 l21 -58 -278 0 -278 0 -56 113 c-192 383 -497 651 -889
781 -143 47 -274 67 -436 67 -225 -1 -427 -47 -619 -144 -463 -233 -761 -662
-866 -1247 -9 -50 -13 -158 -12 -325 0 -233 2 -259 28 -380 113 -538 403 -943
833 -1163 118 -60 235 -102 369 -133 82 -18 129 -22 269 -22 241 0 410 37 621
139 430 205 761 652 859 1159 9 44 18 90 21 103 l4 22 -234 0 -235 0 -11 -42
c-141 -567 -564 -922 -1065 -894 -250 14 -448 103 -643 290 -172 165 -284 380
-339 652 -27 134 -24 442 5 581 99 464 381 786 782 895 110 29 345 32 454 5
392 -98 684 -406 789 -832 8 -33 18 -72 21 -87 l6 -28 -239 0 -238 0 -7 51
c-21 157 -108 341 -211 445 -202 205 -468 204 -672 -2 -121 -122 -204 -321
-233 -554 -22 -182 -10 -393 32 -555 26 -103 104 -265 161 -333 56 -67 146
-136 217 -164 79 -32 240 -32 322 1 129 50 237 159 313 316 36 74 85 216 85
247 0 5 -88 8 -195 8 l-195 0 0 175 0 175 755 2 c415 2 835 3 933 3 l177 0 -1
-155 c-5 -555 -231 -1106 -609 -1484 -314 -314 -705 -511 -1134 -570 -129 -18
-415 -21 -541 -6 -460 57 -897 276 -1210 607 -523 553 -719 1333 -526 2097 94
368 263 677 520 944 324 336 723 542 1177 606 139 20 507 15 634 -8z"/>
</g>
</svg>
